<svg height="480pt" viewBox="-20 0 480 480.07592" width="480pt" xmlns="http://www.w3.org/2000/svg"><path d="m312.117188 360.074219h64c8.835937 0 16-7.160157 16-16v-80c0-8.835938-7.164063-16-16-16h-64v-40h80c22.09375 0 40 17.910156 40 40v112c0 22.09375-17.90625 40-40 40h-80zm0 0" fill="#ccdce5"/><path d="m48.117188 160.074219h288v280h-288zm0 0" fill="#ffc119"/><path d="m325.230469 472.074219h-266.222657c-4.707031.003906-9.171874-2.066407-12.210937-5.65625-3.042969-3.589844-4.347656-8.335938-3.574219-12.972657l4.894532-29.371093h288l4.898437 29.371093c.773437 4.636719-.535156 9.382813-3.574219 12.972657-3.042968 3.589843-7.507812 5.660156-12.210937 5.65625zm0 0" fill="#ccdce5"/><path d="m336.117188 208.074219h16v40h-16zm0 0" fill="#abbac2"/><path d="m336.117188 360.074219h16v40h-16zm0 0" fill="#abbac2"/><path d="m112.117188 176.074219h224v16h-224zm0 0" fill="#faac2b"/><path d="m336.117188 96.074219c-9.011719.03125-17.746094 3.136719-24.757813 8.800781 3.671875-22.863281-7.125-45.625-27.152344-57.246094-20.03125-11.621094-45.152343-9.699218-63.175781 4.839844-8.546875-26.5625-33.3125-44.527344-61.214844-44.398438-27.902344.125-52.503906 18.3125-60.808594 44.949219-7.914062-4.425781-17.128906-5.9375-26.042968-4.261719-10.242188 2.277344-19.226563 8.394532-25.09375 17.09375-6.863282 8.734376-9.34375 20.132813-6.738282 30.929688-17.378906 3.0625-30.6875 17.171875-32.726562 34.703125-2.042969 17.53125 7.667969 34.320313 23.878906 41.296875-.0625 1.09375-.167968 2.175781-.167968 3.285156-.097657 29.035156 22.007812 53.324219 50.921874 55.960938 28.910157 2.632812 55.042969-17.265625 60.191407-45.839844.558593-3.34375.828125-6.730469.800781-10.121094h24.085938c8.835937 0 16 7.164063 16 16v56c0 8.839844 7.164062 16 16 16 8.835937 0 16-7.160156 16-16v-31.992187c0-8.835938 7.164062-16 16-16 8.835937 0 16 7.164062 16 16v88c0 8.839843 7.164062 16 16 16 8.835937 0 16-7.160157 16-16v-112c0-8.835938 7.164062-16 16-16h38.28125c21.027343.355469 38.9375-15.199219 41.535156-36.070313 1.109375-11.238281-2.582032-22.421875-10.167969-30.792968-7.585937-8.367188-18.355469-13.136719-29.648437-13.136719zm0 0" fill="#fcdd5e"/><path d="m64.117188 168.074219h16v16h-16zm0 0"/><path d="m80.117188 96.074219h16v16h-16zm0 0"/><path d="m240.117188 80.074219h16v16h-16zm0 0"/><path d="m152.117188 40.074219h16v16h-16zm0 0"/><path d="m176.117188 120.074219h16v16h-16zm0 0"/><path d="m248.117188 136.074219h16v16h-16zm0 0"/><path d="m328.117188 136.074219h16v16h-16zm0 0"/><path d="m88.117188 264.074219h16v120h-16zm0 0"/><path d="m136.117188 240.074219h16v144h-16zm0 0"/><path d="m184.117188 288.074219h16v96h-16zm0 0"/><path d="m232.117188 344.074219h16v40h-16zm0 0"/><path d="m280.117188 344.074219h16v40h-16zm0 0"/><path d="m440.117188 360.074219v-112c-.023438-26.496094-21.5-47.972657-48-48h-48v-16.949219c21.136718-3.859375 37.273437-21.0625 39.777343-42.402344 1.613281-16.375-5.28125-32.4375-18.269531-42.546875-12.988281-10.105469-30.25-12.847656-45.730469-7.261719-1.75-21.757812-14.46875-41.121093-33.742187-51.371093-19.273438-10.25-42.4375-9.96875-61.457032.742187-12.28125-25.03125-37.910156-40.722656-65.789062-40.2773435s-52.992188 16.9453125-64.46875 42.3554685c-7.40625-2.425781-15.308594-2.9375-22.96875-1.488281-12.277344 2.632812-23.0625 9.90625-30.101562 20.304688-6.472657 8.488281-9.714844 19.003906-9.144532 29.664062-17.734375 6.164062-30.234375 22.117188-31.976562 40.808594-1.746094 18.695312 7.585937 36.683594 23.871094 46.023437.378906 15.007813 6.046874 29.402344 16 40.640625v205.101563l-4.796876 28.714843c-1.160156 6.960938.800782 14.078126 5.363282 19.460938 4.566406 5.382812 11.265625 8.488281 18.324218 8.480469h266.222657c7.058593.007812 13.757812-3.097657 18.320312-8.480469 4.566407-5.382812 6.527344-12.5 5.367188-19.460938l-4.800781-28.714843v-15.34375h48c26.5-.023438 47.976562-21.5 48-48zm-96-104h32c4.417968 0 8 3.582031 8 8v80c0 4.421875-3.582032 8-8 8h-32zm-288-24.679688c13.542968 7.820313 29.460937 10.460938 44.800781 7.433594 25.675781-5.136719 45.589843-25.46875 50.183593-51.25.207032-1.175781.375-2.335937.519532-3.503906h16.496094c4.417968 0 8 3.582031 8 8v56c0 13.257812 10.746093 24 24 24 13.257812 0 24-10.742188 24-24v-32c0-4.417969 3.582031-8 8-8 4.417968 0 8 3.582031 8 8v88c0 13.257812 10.746093 24 24 24 13.257812 0 24-10.742188 24-24v-112c0-4.417969 3.582031-8 8-8h32v232h-272zm-20.664063-65.949219c-12.988281-5.566406-20.773437-19.003906-19.140625-33.039062s12.296875-25.328125 26.214844-27.761719c2.140625-.386719 4.035156-1.625 5.242187-3.4375 1.210938-1.8125 1.625-4.039062 1.15625-6.164062-2.121093-8.578125-.105469-17.65625 5.441407-24.535157 4.65625-7.035156 11.84375-12.011718 20.070312-13.894531 7.105469-1.332031 14.453125-.109375 20.746094 3.445313 2.101562 1.136718 4.605468 1.273437 6.820312.371094 2.214844-.902344 3.910156-2.75 4.617188-5.035157 7.265625-23.308593 28.796875-39.226562 53.214844-39.335937 24.414062-.109375 46.089843 15.613281 53.5625 38.855468.804687 2.511719 2.796874 4.460938 5.320312 5.21875 2.523438.753907 5.257812.21875 7.3125-1.433593 8.5-6.90625 19.132812-10.660157 30.085938-10.625 26.5.027343 47.976562 21.503906 48 48-.011719 1.515625-.105469 3.03125-.277344 4.539062-10.046875 9.046875-15.761719 21.945313-15.722656 35.460938h16c-.015626-9.648438 4.371093-18.777344 11.914062-24.796875.09375-.074219.214844-.105469.3125-.175782 13.195312-10.253906 32.027344-8.769531 43.453125 3.421876 6.140625 6.703124 9.117187 15.714843 8.167969 24.753906-2.230469 16.753906-16.699219 29.15625-33.597656 28.796875h-38.25c-13.253907 0-24 10.746093-24 24v112c0 4.421875-3.582032 8-8 8-4.417969 0-8-3.578125-8-8v-88c0-13.253907-10.742188-24-24-24-13.253907 0-24 10.746093-24 24v32c0 4.421875-3.582032 8-8 8-4.417969 0-8-3.578125-8-8v-56c0-13.253907-10.742188-24-24-24h-16.480469c-1.710938-13.878907-7.976563-26.800781-17.8125-36.742188l-11.410157 11.199219c12.269532 12.542969 16.722657 30.777344 11.609376 47.5625-5.117188 16.785156-18.980469 29.441406-36.160157 33.007812-14.234375 2.863282-29-.800781-40.242187-9.984374-11.089844-9.097657-17.515625-22.695313-17.503906-37.042969 0-.621094.050781-1.230469.089843-1.839844l.0625-.992187c.191407-3.351563-1.730469-6.46875-4.816406-7.796876zm295.867187 295.796876c-1.511718 1.8125-3.75 2.847656-6.105468 2.832031h-266.207032c-2.351562 0-4.585937-1.035157-6.105468-2.828125-1.519532-1.796875-2.171875-4.171875-1.785156-6.488282l3.777343-22.683593h274.449219l3.773438 22.683593c.402343 2.320313-.257813 4.703126-1.796876 6.484376zm92.796876-101.167969c0 17.675781-14.324219 32-32 32h-48v-24h32c13.257812 0 24-10.742188 24-24v-80c0-13.253907-10.742188-24-24-24h-32v-24h48c17.675781 0 32 14.328125 32 32zm0 0"/><path d="m8.117188 232.074219h16v144h-16zm0 0"/><path d="m8.117188 392.074219h16v16h-16zm0 0"/></svg>